<svg t="1632319268968" class="icon" viewBox="0 0 1024 1024" version="1.1" xmlns="http://www.w3.org/2000/svg" p-id="2152"
	 width="40" height="40">
	<path d="M866.461538 787.692308h78.769231v78.76923h-78.769231zM866.461538 708.923077h78.769231v78.769231h-78.769231zM866.461538 630.153846h78.769231v78.769231h-78.769231zM866.461538 551.384615h78.769231v78.769231h-78.769231zM866.461538 472.615385h78.769231v78.76923h-78.769231zM866.461538 393.846154h78.769231v78.769231h-78.769231zM866.461538 315.076923h78.769231v78.769231h-78.769231zM866.461538 236.307692h78.769231v78.769231h-78.769231zM866.461538 157.538462h78.769231v78.76923h-78.769231zM866.461538 78.769231h78.769231v78.769231h-78.769231zM787.692308 866.461538h78.76923v78.769231h-78.76923z"
		  fill="#1E2028" p-id="2153"></path>
	<path d="M787.692308 787.692308h78.76923v78.76923h-78.76923zM787.692308 708.923077h78.76923v78.769231h-78.76923zM787.692308 630.153846h78.76923v78.769231h-78.76923zM787.692308 551.384615h78.76923v78.769231h-78.76923zM787.692308 472.615385h78.76923v78.76923h-78.76923zM787.692308 393.846154h78.76923v78.769231h-78.76923zM787.692308 315.076923h78.76923v78.769231h-78.76923zM787.692308 236.307692h78.76923v78.769231h-78.76923zM787.692308 157.538462h78.76923v78.76923h-78.76923z"
		  fill="#AF1441" p-id="2154"></path>
	<path d="M787.692308 78.769231h78.76923v78.769231h-78.76923z" fill="#FF1A51" p-id="2155"></path>
	<path d="M787.692308 0h78.76923v78.769231h-78.76923zM708.923077 945.230769h78.769231v78.769231h-78.769231z"
		  fill="#1E2028" p-id="2156"></path>
	<path d="M708.923077 866.461538h78.769231v78.769231h-78.769231z" fill="#AF1441" p-id="2157"></path>
	<path d="M708.923077 787.692308h78.769231v78.76923h-78.769231zM708.923077 708.923077h78.769231v78.769231h-78.769231z"
		  fill="#FF1A51" p-id="2158"></path>
	<path d="M708.923077 630.153846h78.769231v78.769231h-78.769231z" fill="#1E2028" p-id="2159"></path>
	<path d="M708.923077 551.384615h78.769231v78.769231h-78.769231z" fill="#FF1A51" p-id="2160"></path>
	<path d="M708.923077 472.615385h78.769231v78.76923h-78.769231zM708.923077 393.846154h78.769231v78.769231h-78.769231zM708.923077 315.076923h78.769231v78.769231h-78.769231zM708.923077 236.307692h78.769231v78.769231h-78.769231zM708.923077 157.538462h78.769231v78.76923h-78.769231z"
		  fill="#1E2028" p-id="2161"></path>
	<path d="M708.923077 78.769231h78.769231v78.769231h-78.769231z" fill="#FF1A51" p-id="2162"></path>
	<path d="M708.923077 0h78.769231v78.769231h-78.769231zM630.153846 945.230769h78.769231v78.769231h-78.769231z"
		  fill="#1E2028" p-id="2163"></path>
	<path d="M630.153846 866.461538h78.769231v78.769231h-78.769231z" fill="#AF1441" p-id="2164"></path>
	<path d="M630.153846 787.692308h78.769231v78.76923h-78.769231z" fill="#FF1A51" p-id="2165"></path>
	<path d="M630.153846 708.923077h78.769231v78.769231h-78.769231z" fill="#1E2028" p-id="2166"></path>
	<path d="M630.153846 630.153846h78.769231v78.769231h-78.769231zM630.153846 551.384615h78.769231v78.769231h-78.769231z"
		  fill="#FF1A51" p-id="2167"></path>
	<path d="M630.153846 472.615385h78.769231v78.76923h-78.769231z" fill="#1E2028" p-id="2168"></path>
	<path d="M630.153846 393.846154h78.769231v78.769231h-78.769231zM630.153846 315.076923h78.769231v78.769231h-78.769231zM630.153846 236.307692h78.769231v78.769231h-78.769231z"
		  fill="#FFDD4D" p-id="2169"></path>
	<path d="M630.153846 157.538462h78.769231v78.76923h-78.769231z" fill="#1E2028" p-id="2170"></path>
	<path d="M630.153846 78.769231h78.769231v78.769231h-78.769231z" fill="#FF1A51" p-id="2171"></path>
	<path d="M630.153846 0h78.769231v78.769231h-78.769231zM551.384615 945.230769h78.769231v78.769231h-78.769231z"
		  fill="#1E2028" p-id="2172"></path>
	<path d="M551.384615 866.461538h78.769231v78.769231h-78.769231z" fill="#AF1441" p-id="2173"></path>
	<path d="M551.384615 787.692308h78.769231v78.76923h-78.769231zM551.384615 708.923077h78.769231v78.769231h-78.769231zM551.384615 630.153846h78.769231v78.769231h-78.769231zM551.384615 551.384615h78.769231v78.769231h-78.769231z"
		  fill="#FF1A51" p-id="2174"></path>
	<path d="M551.384615 472.615385h78.769231v78.76923h-78.769231z" fill="#1E2028" p-id="2175"></path>
	<path d="M551.384615 393.846154h78.769231v78.769231h-78.769231zM551.384615 315.076923h78.769231v78.769231h-78.769231zM551.384615 236.307692h78.769231v78.769231h-78.769231z"
		  fill="#FFDD4D" p-id="2176"></path>
	<path d="M551.384615 157.538462h78.769231v78.76923h-78.769231z" fill="#1E2028" p-id="2177"></path>
	<path d="M551.384615 78.769231h78.769231v78.769231h-78.769231z" fill="#FF1A51" p-id="2178"></path>
	<path d="M551.384615 0h78.769231v78.769231h-78.769231zM472.615385 945.230769h78.76923v78.769231h-78.76923z"
		  fill="#1E2028" p-id="2179"></path>
	<path d="M472.615385 866.461538h78.76923v78.769231h-78.76923z" fill="#AF1441" p-id="2180"></path>
	<path d="M472.615385 787.692308h78.76923v78.76923h-78.76923zM472.615385 708.923077h78.76923v78.769231h-78.76923zM472.615385 630.153846h78.76923v78.769231h-78.76923zM472.615385 551.384615h78.76923v78.769231h-78.76923z"
		  fill="#FF1A51" p-id="2181"></path>
	<path d="M472.615385 472.615385h78.76923v78.76923h-78.76923z" fill="#1E2028" p-id="2182"></path>
	<path d="M472.615385 393.846154h78.76923v78.769231h-78.76923zM472.615385 315.076923h78.76923v78.769231h-78.76923zM472.615385 236.307692h78.76923v78.769231h-78.76923z"
		  fill="#FFDD4D" p-id="2183"></path>
	<path d="M472.615385 157.538462h78.76923v78.76923h-78.76923z" fill="#1E2028" p-id="2184"></path>
	<path d="M472.615385 78.769231h78.76923v78.769231h-78.76923z" fill="#FF1A51" p-id="2185"></path>
	<path d="M472.615385 0h78.76923v78.769231h-78.76923zM393.846154 945.230769h78.769231v78.769231h-78.769231z"
		  fill="#1E2028" p-id="2186"></path>
	<path d="M393.846154 866.461538h78.769231v78.769231h-78.769231z" fill="#AF1441" p-id="2187"></path>
	<path d="M393.846154 787.692308h78.769231v78.76923h-78.769231z" fill="#FF1A51" p-id="2188"></path>
	<path d="M393.846154 708.923077h78.769231v78.769231h-78.769231z" fill="#1E2028" p-id="2189"></path>
	<path d="M393.846154 630.153846h78.769231v78.769231h-78.769231zM393.846154 551.384615h78.769231v78.769231h-78.769231z"
		  fill="#FF1A51" p-id="2190"></path>
	<path d="M393.846154 472.615385h78.769231v78.76923h-78.769231z" fill="#1E2028" p-id="2191"></path>
	<path d="M393.846154 393.846154h78.769231v78.769231h-78.769231zM393.846154 315.076923h78.769231v78.769231h-78.769231zM393.846154 236.307692h78.769231v78.769231h-78.769231z"
		  fill="#FFDD4D" p-id="2192"></path>
	<path d="M393.846154 157.538462h78.769231v78.76923h-78.769231z" fill="#1E2028" p-id="2193"></path>
	<path d="M393.846154 78.769231h78.769231v78.769231h-78.769231z" fill="#FF1A51" p-id="2194"></path>
	<path d="M393.846154 0h78.769231v78.769231h-78.769231zM315.076923 945.230769h78.769231v78.769231h-78.769231z"
		  fill="#1E2028" p-id="2195"></path>
	<path d="M315.076923 866.461538h78.769231v78.769231h-78.769231z" fill="#AF1441" p-id="2196"></path>
	<path d="M315.076923 787.692308h78.769231v78.76923h-78.769231zM315.076923 708.923077h78.769231v78.769231h-78.769231zM315.076923 630.153846h78.769231v78.769231h-78.769231z"
		  fill="#1E2028" p-id="2197"></path>
	<path d="M315.076923 551.384615h78.769231v78.769231h-78.769231z" fill="#FF1A51" p-id="2198"></path>
	<path d="M315.076923 472.615385h78.769231v78.76923h-78.769231z" fill="#1E2028" p-id="2199"></path>
	<path d="M315.076923 393.846154h78.769231v78.769231h-78.769231zM315.076923 315.076923h78.769231v78.769231h-78.769231zM315.076923 236.307692h78.769231v78.769231h-78.769231z"
		  fill="#FF9343" p-id="2200"></path>
	<path d="M315.076923 157.538462h78.769231v78.76923h-78.769231z" fill="#1E2028" p-id="2201"></path>
	<path d="M315.076923 78.769231h78.769231v78.769231h-78.769231z" fill="#FF1A51" p-id="2202"></path>
	<path d="M315.076923 0h78.769231v78.769231h-78.769231zM236.307692 945.230769h78.769231v78.769231h-78.769231z"
		  fill="#1E2028" p-id="2203"></path>
	<path d="M236.307692 866.461538h78.769231v78.769231h-78.769231z" fill="#F4608A" p-id="2204"></path>
	<path d="M236.307692 787.692308h78.769231v78.76923h-78.769231z" fill="#FF1A51" p-id="2205"></path>
	<path d="M236.307692 708.923077h78.769231v78.769231h-78.769231z" fill="#1E2028" p-id="2206"></path>
	<path d="M236.307692 630.153846h78.769231v78.769231h-78.769231zM236.307692 551.384615h78.769231v78.769231h-78.769231z"
		  fill="#FF1A51" p-id="2207"></path>
	<path d="M236.307692 472.615385h78.769231v78.76923h-78.769231zM236.307692 393.846154h78.769231v78.769231h-78.769231zM236.307692 315.076923h78.769231v78.769231h-78.769231zM236.307692 236.307692h78.769231v78.769231h-78.769231zM236.307692 157.538462h78.769231v78.76923h-78.769231z"
		  fill="#1E2028" p-id="2208"></path>
	<path d="M236.307692 78.769231h78.769231v78.769231h-78.769231z" fill="#FF1A51" p-id="2209"></path>
	<path d="M236.307692 0h78.769231v78.769231h-78.769231zM157.538462 945.230769h78.76923v78.769231H157.538462z"
		  fill="#1E2028" p-id="2210"></path>
	<path d="M157.538462 866.461538h78.76923v78.769231H157.538462zM157.538462 787.692308h78.76923v78.76923H157.538462zM157.538462 708.923077h78.76923v78.769231H157.538462zM157.538462 630.153846h78.76923v78.769231H157.538462zM157.538462 551.384615h78.76923v78.769231H157.538462zM157.538462 472.615385h78.76923v78.76923H157.538462zM157.538462 393.846154h78.76923v78.769231H157.538462zM157.538462 315.076923h78.76923v78.769231H157.538462zM157.538462 236.307692h78.76923v78.769231H157.538462zM157.538462 157.538462h78.76923v78.76923H157.538462zM157.538462 78.769231h78.76923v78.769231H157.538462z"
		  fill="#F4608A" p-id="2211"></path>
	<path d="M157.538462 0h78.76923v78.769231H157.538462zM78.769231 866.461538h78.769231v78.769231H78.769231zM78.769231 787.692308h78.769231v78.76923H78.769231zM78.769231 708.923077h78.769231v78.769231H78.769231zM78.769231 630.153846h78.769231v78.769231H78.769231zM78.769231 551.384615h78.769231v78.769231H78.769231zM78.769231 472.615385h78.769231v78.76923H78.769231zM78.769231 393.846154h78.769231v78.769231H78.769231zM78.769231 315.076923h78.769231v78.769231H78.769231zM78.769231 236.307692h78.769231v78.769231H78.769231zM78.769231 157.538462h78.769231v78.76923H78.769231zM78.769231 78.769231h78.769231v78.769231H78.769231z"
		  fill="#1E2028" p-id="2212"></path>
</svg>