<svg t="1632358734823" class="icon" viewBox="0 0 1024 1024" version="1.1" xmlns="http://www.w3.org/2000/svg" p-id="2076"
     width="16" height="16">
    <path d="M866.461538 787.692308h78.769231v78.76923h-78.769231zM866.461538 708.923077h78.769231v78.769231h-78.769231zM866.461538 630.153846h78.769231v78.769231h-78.769231zM866.461538 551.384615h78.769231v78.769231h-78.769231zM866.461538 472.615385h78.769231v78.76923h-78.769231zM866.461538 393.846154h78.769231v78.769231h-78.769231zM866.461538 315.076923h78.769231v78.769231h-78.769231zM866.461538 236.307692h78.769231v78.769231h-78.769231zM866.461538 157.538462h78.769231v78.76923h-78.769231zM866.461538 78.769231h78.769231v78.769231h-78.769231zM787.692308 866.461538h78.76923v78.769231h-78.76923z"
          fill="#1E2028" p-id="2077"></path>
    <path d="M787.692308 787.692308h78.76923v78.76923h-78.76923zM787.692308 708.923077h78.76923v78.769231h-78.76923zM787.692308 630.153846h78.76923v78.769231h-78.76923zM787.692308 551.384615h78.76923v78.769231h-78.76923zM787.692308 472.615385h78.76923v78.76923h-78.76923zM787.692308 393.846154h78.76923v78.769231h-78.76923zM787.692308 315.076923h78.76923v78.769231h-78.76923zM787.692308 236.307692h78.76923v78.769231h-78.76923zM787.692308 157.538462h78.76923v78.76923h-78.76923z"
          fill="#515151" p-id="2078" data-spm-anchor-id="a313x.7781069.0.i20" class=""></path>
    <path d="M787.692308 78.769231h78.76923v78.769231h-78.76923z" fill="#bfbfbf" p-id="2079"
          data-spm-anchor-id="a313x.7781069.0.i21" class=""></path>
    <path d="M787.692308 0h78.76923v78.769231h-78.76923zM708.923077 945.230769h78.769231v78.769231h-78.769231z"
          fill="#1E2028" p-id="2080"></path>
    <path d="M708.923077 866.461538h78.769231v78.769231h-78.769231z" fill="#707070" p-id="2081"
          data-spm-anchor-id="a313x.7781069.0.i12" class=""></path>
    <path d="M708.923077 787.692308h78.769231v78.76923h-78.769231zM708.923077 708.923077h78.769231v78.769231h-78.769231z"
          fill="#cdcdcd" p-id="2082" data-spm-anchor-id="a313x.7781069.0.i11" class=""></path>
    <path d="M708.923077 630.153846h78.769231v78.769231h-78.769231z" fill="#1E2028" p-id="2083"></path>
    <path d="M708.923077 551.384615h78.769231v78.769231h-78.769231z" fill="#cdcdcd" p-id="2084"
          data-spm-anchor-id="a313x.7781069.0.i4" class=""></path>
    <path d="M708.923077 472.615385h78.769231v78.76923h-78.769231zM708.923077 393.846154h78.769231v78.769231h-78.769231zM708.923077 315.076923h78.769231v78.769231h-78.769231zM708.923077 236.307692h78.769231v78.769231h-78.769231zM708.923077 157.538462h78.769231v78.76923h-78.769231z"
          fill="#1E2028" p-id="2085"></path>
    <path d="M708.923077 78.769231h78.769231v78.769231h-78.769231z" fill="#bfbfbf" p-id="2086"
          data-spm-anchor-id="a313x.7781069.0.i26" class=""></path>
    <path d="M708.923077 0h78.769231v78.769231h-78.769231zM630.153846 945.230769h78.769231v78.769231h-78.769231z"
          fill="#1E2028" p-id="2087"></path>
    <path d="M630.153846 866.461538h78.769231v78.769231h-78.769231z" fill="#707070" p-id="2088"
          data-spm-anchor-id="a313x.7781069.0.i17" class=""></path>
    <path d="M630.153846 787.692308h78.769231v78.76923h-78.769231z" fill="#cdcdcd" p-id="2089"
          data-spm-anchor-id="a313x.7781069.0.i10" class=""></path>
    <path d="M630.153846 708.923077h78.769231v78.769231h-78.769231z" fill="#1E2028" p-id="2090"></path>
    <path d="M630.153846 630.153846h78.769231v78.769231h-78.769231zM630.153846 551.384615h78.769231v78.769231h-78.769231z"
          fill="#cdcdcd" p-id="2091" data-spm-anchor-id="a313x.7781069.0.i3" class=""></path>
    <path d="M630.153846 472.615385h78.769231v78.76923h-78.769231z" fill="#1E2028" p-id="2092"></path>
    <path d="M630.153846 393.846154h78.769231v78.769231h-78.769231zM630.153846 315.076923h78.769231v78.769231h-78.769231zM630.153846 236.307692h78.769231v78.769231h-78.769231z"
          fill="#e6e6e6" p-id="2093" data-spm-anchor-id="a313x.7781069.0.i37" class=""></path>
    <path d="M630.153846 157.538462h78.769231v78.76923h-78.769231z" fill="#1E2028" p-id="2094"></path>
    <path d="M630.153846 78.769231h78.769231v78.769231h-78.769231z" fill="#bfbfbf" p-id="2095"
          data-spm-anchor-id="a313x.7781069.0.i27" class=""></path>
    <path d="M630.153846 0h78.769231v78.769231h-78.769231zM551.384615 945.230769h78.769231v78.769231h-78.769231z"
          fill="#1E2028" p-id="2096"></path>
    <path d="M551.384615 866.461538h78.769231v78.769231h-78.769231z" fill="#707070" p-id="2097"
          data-spm-anchor-id="a313x.7781069.0.i16" class=""></path>
    <path d="M551.384615 787.692308h78.769231v78.76923h-78.769231zM551.384615 708.923077h78.769231v78.769231h-78.769231zM551.384615 630.153846h78.769231v78.769231h-78.769231zM551.384615 551.384615h78.769231v78.769231h-78.769231z"
          fill="#cdcdcd" p-id="2098" data-spm-anchor-id="a313x.7781069.0.i2" class=""></path>
    <path d="M551.384615 472.615385h78.769231v78.76923h-78.769231z" fill="#1E2028" p-id="2099"></path>
    <path d="M551.384615 393.846154h78.769231v78.769231h-78.769231zM551.384615 315.076923h78.769231v78.769231h-78.769231zM551.384615 236.307692h78.769231v78.769231h-78.769231z"
          fill="#e6e6e6" p-id="2100" data-spm-anchor-id="a313x.7781069.0.i36" class=""></path>
    <path d="M551.384615 157.538462h78.769231v78.76923h-78.769231z" fill="#1E2028" p-id="2101"></path>
    <path d="M551.384615 78.769231h78.769231v78.769231h-78.769231z" fill="#bfbfbf" p-id="2102"
          data-spm-anchor-id="a313x.7781069.0.i28" class=""></path>
    <path d="M551.384615 0h78.769231v78.769231h-78.769231zM472.615385 945.230769h78.76923v78.769231h-78.76923z"
          fill="#1E2028" p-id="2103"></path>
    <path d="M472.615385 866.461538h78.76923v78.769231h-78.76923z" fill="#707070" p-id="2104"
          data-spm-anchor-id="a313x.7781069.0.i15" class=""></path>
    <path d="M472.615385 787.692308h78.76923v78.76923h-78.76923zM472.615385 708.923077h78.76923v78.769231h-78.76923zM472.615385 630.153846h78.76923v78.769231h-78.76923zM472.615385 551.384615h78.76923v78.769231h-78.76923z"
          fill="#cdcdcd" p-id="2105" data-spm-anchor-id="a313x.7781069.0.i1" class=""></path>
    <path d="M472.615385 472.615385h78.76923v78.76923h-78.76923z" fill="#1E2028" p-id="2106"></path>
    <path d="M472.615385 393.846154h78.76923v78.769231h-78.76923zM472.615385 315.076923h78.76923v78.769231h-78.76923zM472.615385 236.307692h78.76923v78.769231h-78.76923z"
          fill="#e6e6e6" p-id="2107" data-spm-anchor-id="a313x.7781069.0.i35" class=""></path>
    <path d="M472.615385 157.538462h78.76923v78.76923h-78.76923z" fill="#1E2028" p-id="2108"></path>
    <path d="M472.615385 78.769231h78.76923v78.769231h-78.76923z" fill="#bfbfbf" p-id="2109"
          data-spm-anchor-id="a313x.7781069.0.i25" class=""></path>
    <path d="M472.615385 0h78.76923v78.769231h-78.76923zM393.846154 945.230769h78.769231v78.769231h-78.769231z"
          fill="#1E2028" p-id="2110"></path>
    <path d="M393.846154 866.461538h78.769231v78.769231h-78.769231z" fill="#707070" p-id="2111"
          data-spm-anchor-id="a313x.7781069.0.i14" class=""></path>
    <path d="M393.846154 787.692308h78.769231v78.76923h-78.769231z" fill="#cdcdcd" p-id="2112"
          data-spm-anchor-id="a313x.7781069.0.i5" class=""></path>
    <path d="M393.846154 708.923077h78.769231v78.769231h-78.769231z" fill="#1E2028" p-id="2113"></path>
    <path d="M393.846154 630.153846h78.769231v78.769231h-78.769231zM393.846154 551.384615h78.769231v78.769231h-78.769231z"
          fill="#cdcdcd" p-id="2114" data-spm-anchor-id="a313x.7781069.0.i6" class=""></path>
    <path d="M393.846154 472.615385h78.769231v78.76923h-78.769231z" fill="#1E2028" p-id="2115"></path>
    <path d="M393.846154 393.846154h78.769231v78.769231h-78.769231zM393.846154 315.076923h78.769231v78.769231h-78.769231zM393.846154 236.307692h78.769231v78.769231h-78.769231z"
          fill="#e6e6e6" p-id="2116" data-spm-anchor-id="a313x.7781069.0.i34" class=""></path>
    <path d="M393.846154 157.538462h78.769231v78.76923h-78.769231z" fill="#1E2028" p-id="2117"></path>
    <path d="M393.846154 78.769231h78.769231v78.769231h-78.769231z" fill="#bfbfbf" p-id="2118"
          data-spm-anchor-id="a313x.7781069.0.i23" class=""></path>
    <path d="M393.846154 0h78.769231v78.769231h-78.769231zM315.076923 945.230769h78.769231v78.769231h-78.769231z"
          fill="#1E2028" p-id="2119"></path>
    <path d="M315.076923 866.461538h78.769231v78.769231h-78.769231z" fill="#707070" p-id="2120"
          data-spm-anchor-id="a313x.7781069.0.i13" class=""></path>
    <path d="M315.076923 787.692308h78.769231v78.76923h-78.769231zM315.076923 708.923077h78.769231v78.769231h-78.769231zM315.076923 630.153846h78.769231v78.769231h-78.769231z"
          fill="#1E2028" p-id="2121"></path>
    <path d="M315.076923 551.384615h78.769231v78.769231h-78.769231z" fill="#cdcdcd" p-id="2122"
          data-spm-anchor-id="a313x.7781069.0.i7" class=""></path>
    <path d="M315.076923 472.615385h78.769231v78.76923h-78.769231z" fill="#1E2028" p-id="2123"></path>
    <path d="M315.076923 393.846154h78.769231v78.769231h-78.769231zM315.076923 315.076923h78.769231v78.769231h-78.769231zM315.076923 236.307692h78.769231v78.769231h-78.769231z"
          fill="#ffffff" p-id="2124" data-spm-anchor-id="a313x.7781069.0.i33" class=""></path>
    <path d="M315.076923 157.538462h78.769231v78.76923h-78.769231z" fill="#1E2028" p-id="2125"></path>
    <path d="M315.076923 78.769231h78.769231v78.769231h-78.769231z" fill="#bfbfbf" p-id="2126"
          data-spm-anchor-id="a313x.7781069.0.i24" class=""></path>
    <path d="M315.076923 0h78.769231v78.769231h-78.769231zM236.307692 945.230769h78.769231v78.769231h-78.769231z"
          fill="#1E2028" p-id="2127"></path>
    <path d="M236.307692 866.461538h78.769231v78.769231h-78.769231z" fill="#bfbfbf" p-id="2128"
          data-spm-anchor-id="a313x.7781069.0.i30" class=""></path>
    <path d="M236.307692 787.692308h78.769231v78.76923h-78.769231z" fill="#cdcdcd" p-id="2129"
          data-spm-anchor-id="a313x.7781069.0.i9" class=""></path>
    <path d="M236.307692 708.923077h78.769231v78.769231h-78.769231z" fill="#1E2028" p-id="2130"></path>
    <path d="M236.307692 630.153846h78.769231v78.769231h-78.769231zM236.307692 551.384615h78.769231v78.769231h-78.769231z"
          fill="#cdcdcd" p-id="2131" data-spm-anchor-id="a313x.7781069.0.i8" class=""></path>
    <path d="M236.307692 472.615385h78.769231v78.76923h-78.769231zM236.307692 393.846154h78.769231v78.769231h-78.769231zM236.307692 315.076923h78.769231v78.769231h-78.769231zM236.307692 236.307692h78.769231v78.769231h-78.769231zM236.307692 157.538462h78.769231v78.76923h-78.769231z"
          fill="#1E2028" p-id="2132"></path>
    <path d="M236.307692 78.769231h78.769231v78.769231h-78.769231z" fill="#bfbfbf" p-id="2133"
          data-spm-anchor-id="a313x.7781069.0.i22" class=""></path>
    <path d="M236.307692 0h78.769231v78.769231h-78.769231zM157.538462 945.230769h78.76923v78.769231H157.538462z"
          fill="#1E2028" p-id="2134"></path>
    <path d="M157.538462 866.461538h78.76923v78.769231H157.538462zM157.538462 787.692308h78.76923v78.76923H157.538462zM157.538462 708.923077h78.76923v78.769231H157.538462zM157.538462 630.153846h78.76923v78.769231H157.538462zM157.538462 551.384615h78.76923v78.769231H157.538462zM157.538462 472.615385h78.76923v78.76923H157.538462zM157.538462 393.846154h78.76923v78.769231H157.538462zM157.538462 315.076923h78.76923v78.769231H157.538462zM157.538462 236.307692h78.76923v78.769231H157.538462zM157.538462 157.538462h78.76923v78.76923H157.538462zM157.538462 78.769231h78.76923v78.769231H157.538462z"
          fill="#8a8a8a" p-id="2135" data-spm-anchor-id="a313x.7781069.0.i29" class=""></path>
    <path d="M157.538462 0h78.76923v78.769231H157.538462zM78.769231 866.461538h78.769231v78.769231H78.769231zM78.769231 787.692308h78.769231v78.76923H78.769231zM78.769231 708.923077h78.769231v78.769231H78.769231zM78.769231 630.153846h78.769231v78.769231H78.769231zM78.769231 551.384615h78.769231v78.769231H78.769231zM78.769231 472.615385h78.769231v78.76923H78.769231zM78.769231 393.846154h78.769231v78.769231H78.769231zM78.769231 315.076923h78.769231v78.769231H78.769231zM78.769231 236.307692h78.769231v78.769231H78.769231zM78.769231 157.538462h78.769231v78.76923H78.769231zM78.769231 78.769231h78.769231v78.769231H78.769231z"
          fill="#1E2028" p-id="2136" data-spm-anchor-id="a313x.7781069.0.i31" class=""></path>
</svg>